<svg width="18" height="17" viewBox="0 0 18 17" fill="none" xmlns="http://www.w3.org/2000/svg">
<path d="M0.794883 16.6802L1.58488 12.2702C0.334884 9.83023 0.384884 6.87023 1.72488 4.48023C2.80488 2.56023 4.56488 1.17023 6.68488 0.570235C8.80488 -0.0297652 11.0349 0.230235 12.9549 1.31023C16.9249 3.53023 18.3449 8.57023 16.1249 12.5402C13.9549 16.4202 9.08489 17.8702 5.16489 15.8502L0.794883 16.6802ZM5.35488 14.2702L5.60488 14.4102C8.86488 16.2302 13.0049 15.0602 14.8249 11.8002C16.6449 8.54023 15.4849 4.40023 12.2149 2.58023C10.6349 1.70023 8.80488 1.48023 7.06488 1.97023C5.32488 2.46023 3.87488 3.60023 2.99488 5.18023C1.85488 7.22023 1.85488 9.76023 2.99488 11.8002L3.13488 12.0502L2.40488 14.9902L5.35488 14.2702Z" fill="black"/>
</svg>
