<svg width="23" height="19" viewBox="0 0 23 19" fill="none" xmlns="http://www.w3.org/2000/svg">
<path d="M22.1768 2.42325C21.3586 2.78213 20.4869 3.02 19.578 3.1355C20.513 2.57725 21.2266 1.7 21.5621 0.642629C20.6904 1.16238 19.7279 1.5295 18.7021 1.73438C17.8744 0.853004 16.6946 0.307129 15.4076 0.307129C12.9106 0.307129 10.9004 2.33388 10.9004 4.8185C10.9004 5.176 10.9306 5.51975 11.0049 5.847C7.25526 5.66413 3.93738 3.867 1.70851 1.12938C1.31938 1.8045 1.09113 2.57725 1.09113 3.40913C1.09113 4.97113 1.89551 6.35575 3.09451 7.15738C2.36988 7.14363 1.65901 6.93325 1.05676 6.60188C1.05676 6.61563 1.05676 6.6335 1.05676 6.65138C1.05676 8.84313 2.62013 10.6636 4.67026 11.083C4.30313 11.1834 3.90301 11.2315 3.48776 11.2315C3.19901 11.2315 2.90751 11.215 2.63388 11.1545C3.21826 12.9406 4.87651 14.2538 6.84826 14.2964C5.31376 15.4968 3.36538 16.22 1.25613 16.22C0.886258 16.22 0.531508 16.2035 0.176758 16.1581C2.17463 17.4465 4.54238 18.1821 7.09576 18.1821C15.3953 18.1821 19.9328 11.3071 19.9328 5.34788C19.9328 5.1485 19.9259 4.956 19.9163 4.76488C20.8114 4.12963 21.5635 3.33625 22.1768 2.42325Z" fill="#03A9F4"/>
</svg>
