<svg width="16" height="15" viewBox="0 0 16 15" fill="none" xmlns="http://www.w3.org/2000/svg">
<path d="M11.5849 0.710236C10.2849 0.710236 9.05489 1.29024 8.21489 2.27024C7.37489 1.29024 6.14488 0.710236 4.84488 0.710236C2.40488 0.710236 0.424881 2.69024 0.424881 5.13024C0.424881 6.31024 0.88489 7.42024 1.71489 8.25024L8.20488 14.7402L14.6949 8.25024C15.5349 7.42024 15.9849 6.31024 15.9849 5.13024C15.9949 2.70024 14.0149 0.710236 11.5849 0.710236ZM14.6949 5.13024C14.6949 5.96024 14.3749 6.74024 13.7849 7.33024L8.21489 12.9002L2.64488 7.33024C2.05488 6.74024 1.73488 5.96024 1.73488 5.13024C1.73488 3.42024 3.13488 2.02024 4.84488 2.02024C5.95488 2.02024 6.99488 2.62024 7.54488 3.59024L7.61488 3.72024H8.79488L8.86488 3.59024C9.41488 2.62024 10.4549 2.02024 11.5649 2.02024C13.2949 2.02024 14.6949 3.42024 14.6949 5.13024Z" fill="black"/>
</svg>
