<svg width="18" height="18" viewBox="0 0 18 18" fill="none" xmlns="http://www.w3.org/2000/svg">
<path d="M12.2949 11.5302C13.2149 10.3902 13.7249 8.96023 13.7249 7.47023C13.7249 3.90023 10.8149 0.990234 7.23488 0.990234C3.66488 0.990234 0.754883 3.90023 0.754883 7.47023C0.754883 11.0502 3.66488 13.9502 7.23488 13.9502C8.71488 13.9502 10.1449 13.4502 11.2849 12.5302L16.7449 17.9902L17.7449 16.9902L12.2949 11.5302ZM12.3149 7.47023C12.3149 10.2702 10.0449 12.5402 7.24488 12.5402C4.44488 12.5402 2.16488 10.2702 2.16488 7.47023C2.16488 4.67023 4.44488 2.40023 7.23488 2.40023C10.0249 2.40023 12.3149 4.68023 12.3149 7.47023Z" fill="black"/>
</svg>
